# xmcd
#
# Track frame offsets:
#	150
#	19624
#	37955
#	60277
#	77786
#	96482
#	115934
#	130723
#	149818
#	166348
#	183006
#	200298
#	218247
#	237197
#
# Disc length: 3484 seconds
#
# Revision: 1
# Processed by: cddbd v1.5.2PL0 Copyright (c) Steve Scherf et al.
# Submitted via: audiograbber 1.83.01
#
DISCID=b90d9a0e
DTITLE=Dorien Teeuwisse and Gerard Biersteker - Gewoon met z'n 2tjes
DYEAR=2001
DGENRE=
TTITLE0=Dorien Teeuwisse and Gerard Biersteker - End of the line
TTITLE1=Dorien Teeuwisse and Gerard Biersteker - Man of mine
TTITLE2=Dorien Teeuwisse and Gerard Biersteker - Be yourself
TTITLE3=Dorien Teeuwisse and Gerard Biersteker - Come closer
TTITLE4=Dorien Teeuwisse and Gerard Biersteker - Then I looked at you
TTITLE5=Dorien Teeuwisse and Gerard Biersteker - Tell me something new
TTITLE6=Dorien Teeuwisse and Gerard Biersteker - Blame on me
TTITLE7=Dorien Teeuwisse and Gerard Biersteker - Point of view
TTITLE8=Dorien Teeuwisse and Gerard Biersteker - Solution
TTITLE9=Dorien Teeuwisse and Gerard Biersteker - Live the life
TTITLE10=Dorien Teeuwisse and Gerard Biersteker - Friends with you
TTITLE11=Dorien Teeuwisse and Gerard Biersteker - Where is the love
TTITLE12=Dorien Teeuwisse and Gerard Biersteker - Time's unkind
TTITLE13=Dorien Teeuwisse and Gerard Biersteker - Lead me the way
EXTD=
EXTT0=
EXTT1=
EXTT2=
EXTT3=
EXTT4=
EXTT5=
EXTT6=
EXTT7=
EXTT8=
EXTT9=
EXTT10=
EXTT11=
EXTT12=
EXTT13=
PLAYORDER=
